<svg xmlns="http://www.w3.org/2000/svg" width="749" height="918" viewBox="0 0 749 918" fill="none">
  <path
    d="M414.667 1.24835C306.667 12.315 208.133 59.515 132.133 136.448C47.6 222.048 0.666687 336.582 0.666687 457.782C0.666687 496.182 3.20002 520.048 10.9334 556.448C30.4 648.048 82.2667 737.648 151.2 798.982C221.6 861.648 303.067 899.915 393.467 913.115C444.4 920.448 506 918.715 552 908.582C560.933 906.582 560.667 906.448 545.333 902.582C499.467 890.982 444.933 865.782 402.667 836.448C371.733 814.982 337.067 783.248 312.8 754.448C239.867 667.515 201.467 557.648 205.067 445.782C207.333 376.182 222.8 314.182 253.067 253.782C310.667 138.448 412.667 53.2483 536.133 17.115C546.133 14.1817 555.6 11.7817 557.2 11.7817C558.8 11.7817 559.333 11.2483 558.667 10.5817C556.667 8.84835 528.933 4.04835 508 1.78168C487.867 -0.35165 433.2 -0.618317 414.667 1.24835Z"
    fill="#E085A6" />
  <path
    d="M350 346.581C297.867 353.248 253.467 394.715 242.8 446.715C240.267 459.248 240.133 484.981 242.533 497.115C245.733 513.115 256.8 550.848 263.6 568.981C285.6 628.048 317.333 683.248 356 730.048C390.133 771.381 437.867 810.848 480.933 833.648L495.067 841.248L507.867 834.448C600.267 785.781 674.667 707.781 714.667 617.781C739.733 561.248 754 486.315 746.8 448.848C737.867 402.581 704.133 364.981 659.333 351.248C584.933 328.581 508.4 376.448 496.267 453.381L494.533 464.448L493.467 456.715C484.4 386.848 420.133 337.515 350 346.581Z"
    fill="#E085A6" />
</svg>
